<?xml version="1.0" encoding="UTF-8"?>
<svg width="231" height="48" id="Layer_1" data-name="Layer 1" xmlns="http://www.w3.org/2000/svg" viewBox="0 0 428.21 107.23">
  <defs>
    <style>
      .cls-1 {
        fill: #028187;
      }
    </style>
  </defs>
  <path class="cls-1" d="M374.98,9.63v26.62h26.62v8.87h-26.62v26.62h26.62v8.87h-26.62v17.74h-8.87v-35.49h-26.62v-8.87h26.62V9.63h-53.23v97.59h115.33V9.63h-53.23ZM321.75,98.35V18.51h26.62v8.87h-17.74v62.1h17.74v8.87h-26.62ZM419.34,98.35h-26.62v-8.87h17.74V27.38h-17.74v-8.87h26.62v79.85Z"/>
  <g>
    <g>
      <path class="cls-1" d="M19.27,76.96c3.54,0,7,1.08,10.37,3.23l1.2-6.67c-3.44-1.84-7.38-2.76-11.83-2.76-5.77,0-10.38,1.65-13.83,4.95-3.46,3.3-5.18,7.73-5.18,13.29s1.71,9.94,5.13,13.26c3.42,3.32,7.93,4.98,13.52,4.98,4.31,0,8.25-.92,11.83-2.76v-6.77c-3.3,2.22-7.14,3.33-11.51,3.33-3.37,0-6.07-1.06-8.1-3.18-2.03-2.12-3.05-5.07-3.05-8.86s1.03-6.78,3.1-8.88c2.06-2.1,4.85-3.15,8.36-3.15Z"/>
      <path class="cls-1" d="M50.59,80.13c-4.55,0-8.09,1.29-10.63,3.88-2.54,2.59-3.8,5.81-3.8,9.67s1.27,7.08,3.8,9.66c2.54,2.59,6.08,3.88,10.63,3.88s8.04-1.3,10.58-3.91c2.54-2.61,3.8-5.82,3.8-9.64s-1.27-7.03-3.8-9.64c-2.54-2.61-6.06-3.91-10.58-3.91ZM55.72,99.41c-1.16,1.56-2.89,2.34-5.18,2.34s-4.06-.78-5.21-2.34c-1.14-1.56-1.72-3.47-1.72-5.73s.57-4.17,1.72-5.73c1.15-1.56,2.88-2.34,5.21-2.34s4.02.78,5.18,2.34c1.16,1.56,1.75,3.47,1.75,5.73s-.58,4.17-1.75,5.73Z"/>
      <path class="cls-1" d="M90.29,84.46c-2.01-2.88-4.78-4.32-8.28-4.32s-6.41,1.22-8.49,3.67c-2.09,2.45-3.13,5.74-3.13,9.87s1.04,7.42,3.13,9.87c2.08,2.45,4.91,3.67,8.49,3.67s6.23-1.44,8.28-4.32l.68,3.8h6.62v-38.03l-7.29.89v14.9ZM90.24,99.1c-1.6,1.77-3.53,2.66-5.78,2.66s-3.79-.74-4.92-2.21c-1.13-1.48-1.69-3.43-1.69-5.86s.57-4.38,1.69-5.86c1.13-1.48,2.77-2.21,4.92-2.21s4.15.87,5.78,2.61v10.89Z"/>
      <path class="cls-1" d="M118.16,80.13c-4.27,0-7.67,1.23-10.19,3.7-2.52,2.47-3.78,5.75-3.78,9.85s1.26,7.51,3.78,9.93c2.52,2.41,6.19,3.62,11.02,3.62,4.27,0,7.81-.75,10.63-2.24l-1.2-4.84c-2.68,1.29-5.58,1.93-8.7,1.93-2.22,0-4-.55-5.34-1.64-1.34-1.09-2.18-2.65-2.53-4.66h18.76c.1-1.46.16-2.38.16-2.76,0-3.75-1.02-6.83-3.05-9.25-2.03-2.41-5.22-3.62-9.56-3.62ZM111.86,91.02c.66-3.85,2.71-5.78,6.15-5.78s5.4,1.93,5.47,5.78h-11.62Z"/>
      <path class="cls-1" d="M161.4,88.31c3.44-1.15,5.16-3.61,5.16-7.4,0-6.42-4.48-9.64-13.44-9.64h-15.21v35.43h16.46c4.45,0,7.76-.82,9.95-2.45,2.19-1.63,3.28-4.2,3.28-7.71,0-2.01-.51-3.78-1.54-5.29-1.03-1.51-2.58-2.49-4.66-2.94ZM145.57,77.48h7.4c1.95,0,3.4.33,4.38.99.97.66,1.46,1.72,1.46,3.18s-.48,2.54-1.43,3.15c-.96.61-2.42.91-4.4.91h-7.4v-8.23ZM154.16,100.5h-8.6v-8.91h8.6c3.78,0,5.68,1.49,5.68,4.48s-1.89,4.43-5.68,4.43Z"/>
      <path class="cls-1" d="M185.19,81.85c-1.61,1.15-2.89,2.71-3.83,4.69l-.57-5.89h-6.62v26.05h7.29v-16.1c.9-.94,2.21-1.7,3.91-2.29,1.7-.59,3.6-.89,5.68-.89l-.68-7.29c-1.84,0-3.57.57-5.18,1.72Z"/>
      <path class="cls-1" d="M220.51,101.21c-.26-.36-.39-.95-.39-1.75v-9.43c0-3.16-1.03-5.6-3.1-7.32-2.06-1.72-5.1-2.58-9.09-2.58-4.38,0-8.23.73-11.57,2.19l1.25,5.31c3.09-1.36,6.2-2.03,9.33-2.03,3.92,0,5.89,1.3,5.89,3.91v1.72c-2.15-.21-3.84-.31-5.05-.31-3.93,0-7.02.72-9.27,2.16-2.26,1.44-3.39,3.64-3.39,6.59,0,2.19.8,3.99,2.4,5.42,1.6,1.42,3.73,2.14,6.41,2.14,3.92,0,7-1.42,9.22-4.27.69,2.85,2.85,4.27,6.46,4.27,1.46,0,2.79-.17,4.01-.52v-5.16c-.38.14-.9.21-1.56.21-.76,0-1.28-.18-1.54-.55ZM212.83,99.15c-1.81,1.74-3.84,2.6-6.09,2.6-1.25,0-2.25-.27-3-.81-.75-.54-1.12-1.33-1.12-2.37,0-2.15,1.89-3.23,5.68-3.23,1.7,0,3.21.12,4.53.36v3.44Z"/>
      <polygon class="cls-1" points="226.89 72.11 232.05 76.96 237 72.11 232.05 67.26 226.89 72.11"/>
      <rect class="cls-1" x="228.3" y="80.65" width="7.29" height="26.05"/>
      <path class="cls-1" d="M258.88,80.13c-3.58,0-6.32,1.42-8.23,4.27l-.63-3.75h-6.62v26.05h7.29v-18.65c1.53-1.63,3.28-2.45,5.26-2.45,3.16,0,4.74,1.48,4.74,4.43v16.67h7.29v-16.83c0-3.2-.78-5.62-2.34-7.27-1.56-1.65-3.82-2.47-6.77-2.47Z"/>
      <path class="cls-1" d="M285.82,85.45c3.58,0,6.74.66,9.48,1.98l1.25-5.11c-2.92-1.46-6.55-2.19-10.89-2.19-3.44,0-6.16.65-8.18,1.95-2.01,1.3-3.02,3.26-3.02,5.86,0,1.46.36,2.7,1.09,3.73.73,1.03,1.63,1.78,2.71,2.27,1.07.49,2.25.92,3.52,1.3,1.27.38,2.44.69,3.52.91,1.08.23,1.98.58,2.71,1.07.73.49,1.1,1.09,1.1,1.82,0,1.91-1.46,2.87-4.38,2.87-3.51,0-6.63-.68-9.38-2.03l-1.25,5.1c2.81,1.49,6.42,2.24,10.84,2.24,3.82,0,6.71-.72,8.67-2.16,1.96-1.44,2.94-3.53,2.94-6.28,0-1.67-.5-3.03-1.51-4.09-1.01-1.06-2.23-1.82-3.67-2.29-1.44-.47-2.87-.87-4.3-1.2-1.42-.33-2.64-.75-3.65-1.25s-1.51-1.17-1.51-2.01c0-1.67,1.3-2.5,3.91-2.5Z"/>
    </g>
    <g>
      <path class="cls-1" d="M68.09,33.3c.34,0,.51.15.51.46v6.19c0,.34-.17.51-.51.51-2.66,0-5.06-.89-7.21-2.66-1.77,1.77-4.38,2.66-7.83,2.66-2.76,0-5.59-.94-8.49-2.81-2.05,1.88-4.74,2.81-8.08,2.81-2.15,0-4.28-.68-6.39-2.05-.48,4.13-1.99,7.33-4.55,9.62-2.56,2.28-6.11,3.43-10.64,3.43-4.81,0-8.49-1.13-11.05-3.4-2.56-2.27-3.84-5.65-3.84-10.15,0-3.44.75-7.45,2.25-12.02l5.47,1.48c-1.02,3.24-1.53,6.11-1.53,8.59.03,2.76.79,4.84,2.28,6.24,1.48,1.4,3.64,2.1,6.47,2.1,5.7,0,8.54-3.19,8.54-9.57V15.55l6.75-.82v17.04c1.91,1.02,3.77,1.53,5.58,1.53,3.31,0,4.96-1.86,4.96-5.58l-.05-6.86,6.8-.87v10.03c0,.75-.09,1.59-.26,2.51,1.53.51,3.07.77,4.6.77,3.31,0,4.96-1.86,4.96-5.58l-.05-12.18,6.75-.82v15.3c0,.51-.03,1.25-.1,2.2,1.4.72,2.95,1.07,4.66,1.07Z"/>
      <path class="cls-1" d="M85.53,33.3c.34,0,.51.15.51.46v6.19c0,.34-.17.51-.51.51-3,0-5.65-1.11-7.93-3.33-1.94,2.22-5.12,3.33-9.52,3.33-.34,0-.51-.17-.51-.51l.05-6.19c0-.31.17-.46.51-.46,3.34,0,5.01-1.86,5.01-5.58l-.05-6.86,6.8-.87v10.03c0,.38-.03.9-.1,1.59,1.77,1.13,3.68,1.69,5.73,1.69ZM81.49,11.97l-4.91,4.91-4.96-4.91,4.86-4.86,5.01,4.86Z"/>
      <path class="cls-1" d="M95.46,33.3c.34,0,.51.15.51.46v6.19c0,.34-.17.51-.51.51h-9.92c-.34,0-.51-.17-.51-.51v-6.19c0-.31.17-.46.51-.46h9.92Z"/>
      <path class="cls-1" d="M105.38,33.3c.34,0,.51.15.51.46v6.19c0,.34-.17.51-.51.51h-9.92c-.34,0-.51-.17-.51-.51v-6.19c0-.31.17-.46.51-.46h9.92Z"/>
      <path class="cls-1" d="M122.21,48.29l-4.91,4.91-3.99-3.89-3.89,3.89-4.96-4.91,4.91-4.86,3.94,3.84,3.94-3.84,4.96,4.86ZM105.38,40.46c-.34,0-.51-.17-.51-.51l.05-6.19c0-.31.17-.46.51-.46h4.2c3.31,0,4.96-1.86,4.96-5.58v-12.18l6.75-.82v15.3c0,6.96-3.92,10.44-11.77,10.44h-4.2Z"/>
      <path class="cls-1" d="M127.79,40.46V3.99l6.8-.87v37.34h-6.8Z"/>
      <path class="cls-1" d="M150.3,55.91l.66,3.38-13.86,2.81-.61-3.33,13.81-2.87Z"/>
      <path class="cls-1" d="M157.36,33.3c.34,0,.51.15.51.46v6.19c0,.34-.17.51-.51.51-2.32,0-4.14-.75-5.47-2.25v.97c0,4.33-1.14,7.46-3.43,9.39-2.29,1.93-5.82,2.89-10.59,2.89l-.51-5.58c5.22,0,7.83-2.32,7.83-6.96l-.05-23.38,6.75-.82v14.48c.2,1.4.81,2.43,1.82,3.09,1.01.67,2.23,1,3.66,1Z"/>
      <path class="cls-1" d="M157.41,40.46c-.34,0-.51-.17-.51-.51l.05-6.19c0-.31.17-.46.51-.46,3.34,0,5.01-1.86,5.01-5.58l-.05-12.18,6.8-.82v15.3c0,6.96-3.94,10.44-11.82,10.44ZM163.39,53.25l-4.96-4.86,4.86-4.91,5.01,4.91-4.91,4.86Z"/>
      <path class="cls-1" d="M184.77,40.46l-1.07-7.16h12.79c1.64,0,2.88-.41,3.73-1.23.85-.82,1.28-1.93,1.28-3.33l-.05-2.1c0-1.6-.58-2.91-1.74-3.91-1.16-1.01-2.66-1.51-4.5-1.51h-3.38v-6.96h4.86c3.48,0,6.27,1.04,8.39,3.12,2.11,2.08,3.17,4.93,3.17,8.54l.05,4.09c-.07,6.96-4.02,10.44-11.87,10.44h-11.66Z"/>
      <path class="cls-1" d="M238.54,33.3c.34,0,.51.15.51.46v6.19c0,.34-.17.51-.51.51h-2.66c-.65,7.33-7.44,11-20.36,11l-.72-5.58c4.5,0,7.89-.43,10.18-1.28,2.28-.85,3.65-2.23,4.09-4.14h-4.96c-3.61,0-6.52-1.14-8.72-3.43-2.2-2.28-3.3-5.34-3.3-9.16s1.17-6.79,3.5-9.23c2.34-2.44,5.26-3.66,8.77-3.66s6.15,1.12,8.31,3.35c2.17,2.23,3.25,5.23,3.25,8.98v5.99h2.61ZM218.18,27.68c0,1.94.6,3.43,1.82,4.45,1.21,1.02,2.8,1.53,4.78,1.53.89,0,2.35-.07,4.4-.2v-5.68c0-1.84-.49-3.29-1.46-4.35s-2.28-1.59-3.91-1.59-2.9.54-3.99,1.61c-1.09,1.07-1.64,2.48-1.64,4.22Z"/>
      <path class="cls-1" d="M248.46,33.3c.34,0,.51.15.51.46v6.19c0,.34-.17.51-.51.51h-9.92c-.34,0-.51-.17-.51-.51v-6.19c0-.31.17-.46.51-.46h9.92Z"/>
      <path class="cls-1" d="M258.39,33.3c.34,0,.51.15.51.46v6.19c0,.34-.17.51-.51.51h-9.92c-.34,0-.51-.17-.51-.51v-6.19c0-.31.17-.46.51-.46h9.92Z"/>
      <path class="cls-1" d="M268.31,33.3c.34,0,.51.15.51.46v6.19c0,.34-.17.51-.51.51h-9.92c-.34,0-.51-.17-.51-.51v-6.19c0-.31.17-.46.51-.46h9.92Z"/>
      <path class="cls-1" d="M283.86,18.01c3.85,0,6.93.98,9.23,2.94,2.3,1.96,3.45,4.58,3.45,7.85,0,3.65-1.07,6.51-3.22,8.57-2.15,2.06-5.11,3.09-8.9,3.09h-16.11c-.34,0-.51-.17-.51-.51v-6.19c0-.31.17-.46.51-.46h15.96c1.7,0,3.05-.41,4.04-1.23.99-.82,1.48-1.93,1.48-3.33s-.49-2.51-1.48-3.35c-.99-.84-2.32-1.25-3.99-1.25h-11.77l-3.53-6.19L283.76,0l6.29,3.43-13.71,14.58h7.52Z"/>
    </g>
  </g>
</svg>